<?xml version="1.0" encoding="UTF-8" standalone="no"?>
<!DOCTYPE svg PUBLIC "-//W3C//DTD SVG 1.1//EN" "http://www.w3.org/Graphics/SVG/1.1/DTD/svg11.dtd">
<svg width="100%" height="100%" viewBox="0 0 337 321" version="1.1" xmlns="http://www.w3.org/2000/svg" xmlns:xlink="http://www.w3.org/1999/xlink" xml:space="preserve" xmlns:serif="http://www.serif.com/" style="fill-rule:evenodd;clip-rule:evenodd;stroke-linecap:round;stroke-linejoin:round;stroke-miterlimit:1.5;">
    <g transform="matrix(1,0,0,1,-2114.41,-918.943)">
        <g id="kaleido-border" serif:id="kaleido border" transform="matrix(1.94093,0,0,2.00301,879.099,-537.874)">
            <path d="M798.932,737C779.672,720.082 714.179,731.712 688.857,731.712C674.794,731.712 654.559,725.141 647,737C638.568,750.229 638.265,787.264 638.265,811.086C638.265,834.218 632.014,867.88 647,879.932C661.986,891.984 702.887,884.185 728.182,883.397C751.857,882.659 786.061,883.566 798.767,875.203C810.562,867.44 804.401,847.341 804.418,833.22C804.446,810.186 818.192,753.918 798.932,737Z" style="fill:none;stroke:rgb(233,233,233);stroke-width:1.01px;stroke-dasharray:2.03,3.04,4.06,0;"/>
        </g>
    </g>
</svg>
