<?xml version="1.0" encoding="UTF-8" standalone="no"?>
<!DOCTYPE svg PUBLIC "-//W3C//DTD SVG 1.1//EN" "http://www.w3.org/Graphics/SVG/1.1/DTD/svg11.dtd">
<svg width="100%" height="100%" viewBox="0 0 620 620" version="1.1" xmlns="http://www.w3.org/2000/svg" xmlns:xlink="http://www.w3.org/1999/xlink" xml:space="preserve" xmlns:serif="http://www.serif.com/" style="fill-rule:evenodd;clip-rule:evenodd;stroke-linecap:round;stroke-linejoin:round;stroke-miterlimit:1.5;">
    <g transform="matrix(1,0,0,1,-74,-90.5)">
        <path d="M307,103.72C307,100.011 303.989,97 300.28,97L89.72,97C86.011,97 83,100.011 83,103.72L83,314.28C83,317.989 86.011,321 89.72,321L300.28,321C303.989,321 307,317.989 307,314.28L307,103.72Z" style="fill:rgb(239,241,241);stroke:rgb(176,201,197);stroke-width:2px;stroke-dasharray:6,6,0,0;"/>
    </g>
    <g transform="matrix(1,0,0,1,-74,291.5)">
        <path d="M307,103.72C307,100.011 303.989,97 300.28,97L89.72,97C86.011,97 83,100.011 83,103.72L83,314.28C83,317.989 86.011,321 89.72,321L300.28,321C303.989,321 307,317.989 307,314.28L307,103.72Z" style="fill:rgb(239,241,241);stroke:rgb(176,201,197);stroke-width:2px;stroke-dasharray:6,6,0,0;"/>
    </g>
    <g transform="matrix(1,0,0,1,308,-90.5)">
        <path d="M307,117.16C307,106.033 297.967,97 286.84,97L103.16,97C92.033,97 83,106.033 83,117.16L83,300.84C83,311.967 92.033,321 103.16,321L286.84,321C297.967,321 307,311.967 307,300.84L307,117.16Z" style="fill:white;stroke:rgb(27,27,27);stroke-width:4px;"/>
    </g>
    <g transform="matrix(1,0,0,1,308,291.5)">
        <path d="M307,117.16C307,106.033 297.967,97 286.84,97L103.16,97C92.033,97 83,106.033 83,117.16L83,300.84C83,311.967 92.033,321 103.16,321L286.84,321C297.967,321 307,311.967 307,300.84L307,117.16Z" style="fill:white;stroke:rgb(25,25,25);stroke-width:4px;"/>
    </g>
    <g transform="matrix(0.443787,0,0,1,104.929,319.5)">
        <path d="M399,189.4L399,172.6L513.92,172.6L513.92,157L568,181L513.92,205L513.92,189.4L399,189.4Z" style="fill:white;stroke:rgb(156,156,156);stroke-width:2.59px;"/>
    </g>
    <g transform="matrix(0.443787,0,0,1,97.429,-62.5)">
        <path d="M399,189.4L399,172.6L513.92,172.6L513.92,157L568,181L513.92,205L513.92,189.4L399,189.4Z" style="fill:white;stroke:rgb(156,156,156);stroke-width:2.59px;"/>
    </g>
    <g transform="matrix(1,0,0,1,-196,-38)">
        <path d="M699,108L760,205L638,205L699,108Z" style="fill:rgb(159,23,237);"/>
    </g>
    <g transform="matrix(1,0,0,1,-189.5,51)">
        <path d="M692.5,393L749,449.5L692.5,506L636,449.5L692.5,393Z" style="fill:rgb(240,101,66);"/>
    </g>
    <g transform="matrix(1,0,0,1,-176,-153)">
        <g transform="matrix(72,0,0,72,211,257.4)">
            <path d="M0.452,-0.358L0.134,-0.358L0.134,-0L0.078,-0L0.078,-0.7L0.134,-0.7L0.134,-0.413L0.452,-0.413L0.452,-0.7L0.508,-0.7L0.508,-0L0.452,-0L0.452,-0.358Z" style="fill-rule:nonzero;"/>
        </g>
        <g transform="matrix(72,0,0,72,256.072,257.4)">
            <path d="M0.377,-0.245L0.149,-0.245L0.071,-0L0.012,-0L0.236,-0.7L0.289,-0.7L0.517,-0L0.457,-0L0.377,-0.245ZM0.165,-0.3L0.362,-0.3L0.262,-0.613L0.165,-0.3Z" style="fill-rule:nonzero;"/>
        </g>
        <g transform="matrix(72,0,0,72,296.752,257.4)">
            <path d="M0.094,-0.178C0.096,-0.155 0.105,-0.134 0.12,-0.113C0.135,-0.092 0.155,-0.076 0.182,-0.063C0.208,-0.05 0.238,-0.043 0.272,-0.043C0.323,-0.043 0.366,-0.055 0.401,-0.078C0.435,-0.1 0.452,-0.137 0.452,-0.187C0.452,-0.216 0.444,-0.241 0.427,-0.261C0.41,-0.28 0.39,-0.296 0.365,-0.308C0.34,-0.319 0.307,-0.333 0.264,-0.348C0.218,-0.364 0.181,-0.379 0.154,-0.393C0.126,-0.406 0.102,-0.425 0.084,-0.448C0.065,-0.471 0.055,-0.501 0.055,-0.538C0.055,-0.567 0.063,-0.595 0.08,-0.622C0.097,-0.648 0.122,-0.669 0.156,-0.686C0.189,-0.702 0.231,-0.71 0.28,-0.71C0.313,-0.71 0.34,-0.708 0.361,-0.703C0.382,-0.698 0.404,-0.691 0.426,-0.68L0.409,-0.627C0.371,-0.646 0.329,-0.656 0.282,-0.656C0.231,-0.656 0.19,-0.645 0.159,-0.624C0.128,-0.603 0.113,-0.573 0.113,-0.535C0.113,-0.511 0.121,-0.491 0.136,-0.475C0.151,-0.458 0.17,-0.445 0.193,-0.435C0.215,-0.425 0.246,-0.413 0.286,-0.399C0.335,-0.382 0.374,-0.367 0.404,-0.353C0.434,-0.338 0.46,-0.318 0.481,-0.292C0.501,-0.265 0.512,-0.232 0.512,-0.192C0.512,-0.131 0.493,-0.082 0.454,-0.045C0.415,-0.008 0.354,0.011 0.273,0.011C0.224,0.011 0.182,0.002 0.147,-0.017C0.112,-0.035 0.085,-0.058 0.067,-0.088C0.048,-0.117 0.038,-0.147 0.037,-0.178L0.094,-0.178Z" style="fill-rule:nonzero;"/>
        </g>
        <g transform="matrix(72,0,0,72,339.88,257.4)">
            <path d="M0.452,-0.358L0.134,-0.358L0.134,-0L0.078,-0L0.078,-0.7L0.134,-0.7L0.134,-0.413L0.452,-0.413L0.452,-0.7L0.508,-0.7L0.508,-0L0.452,-0L0.452,-0.358Z" style="fill-rule:nonzero;"/>
        </g>
        <g transform="matrix(72,0,0,72,211,341.4)">
            <path d="M0.129,-0.634C0.118,-0.624 0.106,-0.616 0.093,-0.609C0.079,-0.602 0.067,-0.596 0.057,-0.594C0.046,-0.591 0.04,-0.589 0.037,-0.588L0.024,-0.641C0.024,-0.64 0.03,-0.641 0.043,-0.644C0.056,-0.647 0.07,-0.653 0.086,-0.662C0.101,-0.671 0.116,-0.683 0.129,-0.7L0.185,-0.7L0.185,-0L0.129,-0L0.129,-0.634Z" style="fill-rule:nonzero;"/>
        </g>
        <g transform="matrix(72,0,0,72,242.464,341.4)">
            <path d="M0.071,-0.113C0.085,-0.092 0.103,-0.075 0.127,-0.063C0.15,-0.05 0.174,-0.044 0.201,-0.044C0.23,-0.044 0.256,-0.051 0.28,-0.065C0.304,-0.079 0.323,-0.098 0.337,-0.122C0.351,-0.146 0.358,-0.172 0.358,-0.201C0.358,-0.23 0.351,-0.256 0.337,-0.28C0.323,-0.304 0.304,-0.323 0.28,-0.337C0.256,-0.351 0.23,-0.358 0.201,-0.358L0.057,-0.358L0.093,-0.7L0.358,-0.7L0.358,-0.645L0.142,-0.645L0.118,-0.413L0.201,-0.413C0.24,-0.413 0.275,-0.404 0.308,-0.385C0.341,-0.366 0.367,-0.34 0.386,-0.308C0.405,-0.275 0.414,-0.24 0.414,-0.201C0.414,-0.162 0.405,-0.127 0.386,-0.094C0.367,-0.061 0.341,-0.035 0.308,-0.017C0.275,0.003 0.24,0.012 0.201,0.012C0.165,0.012 0.131,0.004 0.1,-0.014C0.069,-0.031 0.043,-0.054 0.024,-0.083L0.071,-0.113Z" style="fill-rule:nonzero;"/>
        </g>
        <g transform="matrix(72,0,0,72,290.416,341.4)">
            <path d="M0.071,-0.113C0.085,-0.092 0.103,-0.075 0.127,-0.063C0.15,-0.05 0.174,-0.044 0.201,-0.044C0.23,-0.044 0.256,-0.051 0.28,-0.065C0.304,-0.079 0.323,-0.098 0.337,-0.122C0.351,-0.146 0.358,-0.172 0.358,-0.201C0.358,-0.229 0.351,-0.255 0.338,-0.278C0.325,-0.301 0.306,-0.32 0.283,-0.335C0.26,-0.349 0.234,-0.357 0.207,-0.358L0.097,-0.358L0.29,-0.645L0.071,-0.645L0.071,-0.7L0.358,-0.7L0.358,-0.651L0.199,-0.413L0.201,-0.413C0.24,-0.413 0.275,-0.404 0.308,-0.385C0.341,-0.366 0.367,-0.34 0.386,-0.308C0.405,-0.275 0.414,-0.24 0.414,-0.201C0.414,-0.162 0.405,-0.127 0.386,-0.094C0.367,-0.061 0.341,-0.035 0.308,-0.017C0.275,0.003 0.24,0.012 0.201,0.012C0.165,0.012 0.131,0.004 0.1,-0.014C0.069,-0.031 0.043,-0.054 0.024,-0.083L0.071,-0.113Z" style="fill-rule:nonzero;"/>
        </g>
        <g transform="matrix(72,0,0,72,338.368,341.4)">
            <path d="M0.377,-0.245L0.149,-0.245L0.071,-0L0.012,-0L0.236,-0.7L0.289,-0.7L0.517,-0L0.457,-0L0.377,-0.245ZM0.165,-0.3L0.362,-0.3L0.262,-0.613L0.165,-0.3Z" style="fill-rule:nonzero;"/>
        </g>
    </g>
    <g transform="matrix(1,0,0,1,-176,225)">
        <g transform="matrix(72,0,0,72,211,257.4)">
            <path d="M0.452,-0.358L0.134,-0.358L0.134,-0L0.078,-0L0.078,-0.7L0.134,-0.7L0.134,-0.413L0.452,-0.413L0.452,-0.7L0.508,-0.7L0.508,-0L0.452,-0L0.452,-0.358Z" style="fill-rule:nonzero;"/>
        </g>
        <g transform="matrix(72,0,0,72,256.072,257.4)">
            <path d="M0.377,-0.245L0.149,-0.245L0.071,-0L0.012,-0L0.236,-0.7L0.289,-0.7L0.517,-0L0.457,-0L0.377,-0.245ZM0.165,-0.3L0.362,-0.3L0.262,-0.613L0.165,-0.3Z" style="fill-rule:nonzero;"/>
        </g>
        <g transform="matrix(72,0,0,72,296.752,257.4)">
            <path d="M0.094,-0.178C0.096,-0.155 0.105,-0.134 0.12,-0.113C0.135,-0.092 0.155,-0.076 0.182,-0.063C0.208,-0.05 0.238,-0.043 0.272,-0.043C0.323,-0.043 0.366,-0.055 0.401,-0.078C0.435,-0.1 0.452,-0.137 0.452,-0.187C0.452,-0.216 0.444,-0.241 0.427,-0.261C0.41,-0.28 0.39,-0.296 0.365,-0.308C0.34,-0.319 0.307,-0.333 0.264,-0.348C0.218,-0.364 0.181,-0.379 0.154,-0.393C0.126,-0.406 0.102,-0.425 0.084,-0.448C0.065,-0.471 0.055,-0.501 0.055,-0.538C0.055,-0.567 0.063,-0.595 0.08,-0.622C0.097,-0.648 0.122,-0.669 0.156,-0.686C0.189,-0.702 0.231,-0.71 0.28,-0.71C0.313,-0.71 0.34,-0.708 0.361,-0.703C0.382,-0.698 0.404,-0.691 0.426,-0.68L0.409,-0.627C0.371,-0.646 0.329,-0.656 0.282,-0.656C0.231,-0.656 0.19,-0.645 0.159,-0.624C0.128,-0.603 0.113,-0.573 0.113,-0.535C0.113,-0.511 0.121,-0.491 0.136,-0.475C0.151,-0.458 0.17,-0.445 0.193,-0.435C0.215,-0.425 0.246,-0.413 0.286,-0.399C0.335,-0.382 0.374,-0.367 0.404,-0.353C0.434,-0.338 0.46,-0.318 0.481,-0.292C0.501,-0.265 0.512,-0.232 0.512,-0.192C0.512,-0.131 0.493,-0.082 0.454,-0.045C0.415,-0.008 0.354,0.011 0.273,0.011C0.224,0.011 0.182,0.002 0.147,-0.017C0.112,-0.035 0.085,-0.058 0.067,-0.088C0.048,-0.117 0.038,-0.147 0.037,-0.178L0.094,-0.178Z" style="fill-rule:nonzero;"/>
        </g>
        <g transform="matrix(72,0,0,72,339.88,257.4)">
            <path d="M0.452,-0.358L0.134,-0.358L0.134,-0L0.078,-0L0.078,-0.7L0.134,-0.7L0.134,-0.413L0.452,-0.413L0.452,-0.7L0.508,-0.7L0.508,-0L0.452,-0L0.452,-0.358Z" style="fill-rule:nonzero;"/>
        </g>
        <g transform="matrix(72,0,0,72,211,341.4)">
            <path d="M0.129,-0.634C0.118,-0.624 0.106,-0.616 0.093,-0.609C0.079,-0.602 0.067,-0.596 0.057,-0.594C0.046,-0.591 0.04,-0.589 0.037,-0.588L0.024,-0.641C0.024,-0.64 0.03,-0.641 0.043,-0.644C0.056,-0.647 0.07,-0.653 0.086,-0.662C0.101,-0.671 0.116,-0.683 0.129,-0.7L0.185,-0.7L0.185,-0L0.129,-0L0.129,-0.634Z" style="fill-rule:nonzero;"/>
        </g>
        <g transform="matrix(72,0,0,72,242.464,341.4)">
            <path d="M0.071,-0.113C0.085,-0.092 0.103,-0.075 0.127,-0.063C0.15,-0.05 0.174,-0.044 0.201,-0.044C0.23,-0.044 0.256,-0.051 0.28,-0.065C0.304,-0.079 0.323,-0.098 0.337,-0.122C0.351,-0.146 0.358,-0.172 0.358,-0.201C0.358,-0.23 0.351,-0.256 0.337,-0.28C0.323,-0.304 0.304,-0.323 0.28,-0.337C0.256,-0.351 0.23,-0.358 0.201,-0.358L0.057,-0.358L0.093,-0.7L0.358,-0.7L0.358,-0.645L0.142,-0.645L0.118,-0.413L0.201,-0.413C0.24,-0.413 0.275,-0.404 0.308,-0.385C0.341,-0.366 0.367,-0.34 0.386,-0.308C0.405,-0.275 0.414,-0.24 0.414,-0.201C0.414,-0.162 0.405,-0.127 0.386,-0.094C0.367,-0.061 0.341,-0.035 0.308,-0.017C0.275,0.003 0.24,0.012 0.201,0.012C0.165,0.012 0.131,0.004 0.1,-0.014C0.069,-0.031 0.043,-0.054 0.024,-0.083L0.071,-0.113Z" style="fill-rule:nonzero;"/>
        </g>
        <g transform="matrix(72,0,0,72,290.416,341.4)">
            <path d="M0.071,-0.113C0.085,-0.092 0.103,-0.075 0.127,-0.063C0.15,-0.05 0.174,-0.044 0.201,-0.044C0.23,-0.044 0.256,-0.051 0.28,-0.065C0.304,-0.079 0.323,-0.098 0.337,-0.122C0.351,-0.146 0.358,-0.172 0.358,-0.201C0.358,-0.229 0.351,-0.255 0.338,-0.278C0.325,-0.301 0.306,-0.32 0.283,-0.335C0.26,-0.349 0.234,-0.357 0.207,-0.358L0.097,-0.358L0.29,-0.645L0.071,-0.645L0.071,-0.7L0.358,-0.7L0.358,-0.651L0.199,-0.413L0.201,-0.413C0.24,-0.413 0.275,-0.404 0.308,-0.385C0.341,-0.366 0.367,-0.34 0.386,-0.308C0.405,-0.275 0.414,-0.24 0.414,-0.201C0.414,-0.162 0.405,-0.127 0.386,-0.094C0.367,-0.061 0.341,-0.035 0.308,-0.017C0.275,0.003 0.24,0.012 0.201,0.012C0.165,0.012 0.131,0.004 0.1,-0.014C0.069,-0.031 0.043,-0.054 0.024,-0.083L0.071,-0.113Z" style="fill-rule:nonzero;"/>
        </g>
        <g transform="matrix(72,0,0,72,338.368,341.4)">
            <path d="M0.377,-0.245L0.149,-0.245L0.071,-0L0.012,-0L0.236,-0.7L0.289,-0.7L0.517,-0L0.457,-0L0.377,-0.245ZM0.165,-0.3L0.362,-0.3L0.262,-0.613L0.165,-0.3Z" style="fill-rule:nonzero;"/>
        </g>
    </g>
    <g transform="matrix(0.666581,-0.745433,0.745433,0.666581,-188.46,437.321)">
        <rect x="285" y="381" width="17" height="84" style="fill:rgb(246,0,0);"/>
    </g>
    <g transform="matrix(0.694875,0.719131,-0.719131,0.694875,422.747,-4.49689)">
        <rect x="285" y="381" width="17" height="84" style="fill:rgb(246,0,0);"/>
    </g>
</svg>
