<?xml version="1.0" encoding="UTF-8" standalone="no"?>
<!DOCTYPE svg PUBLIC "-//W3C//DTD SVG 1.1//EN" "http://www.w3.org/Graphics/SVG/1.1/DTD/svg11.dtd">
<svg width="100%" height="100%" viewBox="0 0 620 620" version="1.1" xmlns="http://www.w3.org/2000/svg" xmlns:xlink="http://www.w3.org/1999/xlink" xml:space="preserve" xmlns:serif="http://www.serif.com/" style="fill-rule:evenodd;clip-rule:evenodd;stroke-linecap:round;stroke-linejoin:round;stroke-miterlimit:1.5;">
    <g transform="matrix(1,0,0,1,-74,-90.5)">
        <path d="M307,103.72C307,100.011 303.989,97 300.28,97L89.72,97C86.011,97 83,100.011 83,103.72L83,314.28C83,317.989 86.011,321 89.72,321L300.28,321C303.989,321 307,317.989 307,314.28L307,103.72Z" style="fill:rgb(239,241,241);stroke:rgb(176,201,197);stroke-width:2px;stroke-dasharray:6,6,0,0;"/>
    </g>
    <g transform="matrix(1,0,0,1,-74,291.5)">
        <path d="M307,103.72C307,100.011 303.989,97 300.28,97L89.72,97C86.011,97 83,100.011 83,103.72L83,314.28C83,317.989 86.011,321 89.72,321L300.28,321C303.989,321 307,317.989 307,314.28L307,103.72Z" style="fill:rgb(239,241,241);stroke:rgb(176,201,197);stroke-width:2px;stroke-dasharray:6,6,0,0;"/>
    </g>
    <g transform="matrix(1,0,0,1,308,-90.5)">
        <path d="M307,117.16C307,106.033 297.967,97 286.84,97L103.16,97C92.033,97 83,106.033 83,117.16L83,300.84C83,311.967 92.033,321 103.16,321L286.84,321C297.967,321 307,311.967 307,300.84L307,117.16Z" style="fill:white;stroke:rgb(27,27,27);stroke-width:4px;"/>
    </g>
    <g transform="matrix(1,0,0,1,308,291.5)">
        <path d="M307,117.16C307,106.033 297.967,97 286.84,97L103.16,97C92.033,97 83,106.033 83,117.16L83,300.84C83,311.967 92.033,321 103.16,321L286.84,321C297.967,321 307,311.967 307,300.84L307,117.16Z" style="fill:white;stroke:rgb(25,25,25);stroke-width:4px;"/>
    </g>
    <g transform="matrix(0.443787,0,0,1,104.929,319.5)">
        <path d="M399,189.4L399,172.6L513.92,172.6L513.92,157L568,181L513.92,205L513.92,189.4L399,189.4Z" style="fill:white;stroke:rgb(156,156,156);stroke-width:2.59px;"/>
    </g>
    <g transform="matrix(0.443787,0,0,1,97.429,-62.5)">
        <path d="M399,189.4L399,172.6L513.92,172.6L513.92,157L568,181L513.92,205L513.92,189.4L399,189.4Z" style="fill:white;stroke:rgb(156,156,156);stroke-width:2.59px;"/>
    </g>
    <g transform="matrix(1,0,0,1,-196,-38)">
        <path d="M699,108L760,205L638,205L699,108Z" style="fill:rgb(159,23,237);"/>
    </g>
    <g transform="matrix(1,0,0,1,-189.5,51)">
        <path d="M692.5,393L749,449.5L692.5,506L636,449.5L692.5,393Z" style="fill:rgb(240,101,66);"/>
    </g>
    <g transform="matrix(1,0,0,1,-176,-153)">
        <g transform="matrix(72,0,0,72,211,257.4)">
            <path d="M0.452,-0.358L0.134,-0.358L0.134,-0L0.078,-0L0.078,-0.7L0.134,-0.7L0.134,-0.413L0.452,-0.413L0.452,-0.7L0.508,-0.7L0.508,-0L0.452,-0L0.452,-0.358Z" style="fill-rule:nonzero;"/>
        </g>
        <g transform="matrix(72,0,0,72,256.072,257.4)">
            <path d="M0.377,-0.245L0.149,-0.245L0.071,-0L0.012,-0L0.236,-0.7L0.289,-0.7L0.517,-0L0.457,-0L0.377,-0.245ZM0.165,-0.3L0.362,-0.3L0.262,-0.613L0.165,-0.3Z" style="fill-rule:nonzero;"/>
        </g>
        <g transform="matrix(72,0,0,72,296.752,257.4)">
            <path d="M0.094,-0.178C0.096,-0.155 0.105,-0.134 0.12,-0.113C0.135,-0.092 0.155,-0.076 0.182,-0.063C0.208,-0.05 0.238,-0.043 0.272,-0.043C0.323,-0.043 0.366,-0.055 0.401,-0.078C0.435,-0.1 0.452,-0.137 0.452,-0.187C0.452,-0.216 0.444,-0.241 0.427,-0.261C0.41,-0.28 0.39,-0.296 0.365,-0.308C0.34,-0.319 0.307,-0.333 0.264,-0.348C0.218,-0.364 0.181,-0.379 0.154,-0.393C0.126,-0.406 0.102,-0.425 0.084,-0.448C0.065,-0.471 0.055,-0.501 0.055,-0.538C0.055,-0.567 0.063,-0.595 0.08,-0.622C0.097,-0.648 0.122,-0.669 0.156,-0.686C0.189,-0.702 0.231,-0.71 0.28,-0.71C0.313,-0.71 0.34,-0.708 0.361,-0.703C0.382,-0.698 0.404,-0.691 0.426,-0.68L0.409,-0.627C0.371,-0.646 0.329,-0.656 0.282,-0.656C0.231,-0.656 0.19,-0.645 0.159,-0.624C0.128,-0.603 0.113,-0.573 0.113,-0.535C0.113,-0.511 0.121,-0.491 0.136,-0.475C0.151,-0.458 0.17,-0.445 0.193,-0.435C0.215,-0.425 0.246,-0.413 0.286,-0.399C0.335,-0.382 0.374,-0.367 0.404,-0.353C0.434,-0.338 0.46,-0.318 0.481,-0.292C0.501,-0.265 0.512,-0.232 0.512,-0.192C0.512,-0.131 0.493,-0.082 0.454,-0.045C0.415,-0.008 0.354,0.011 0.273,0.011C0.224,0.011 0.182,0.002 0.147,-0.017C0.112,-0.035 0.085,-0.058 0.067,-0.088C0.048,-0.117 0.038,-0.147 0.037,-0.178L0.094,-0.178Z" style="fill-rule:nonzero;"/>
        </g>
        <g transform="matrix(72,0,0,72,339.88,257.4)">
            <path d="M0.452,-0.358L0.134,-0.358L0.134,-0L0.078,-0L0.078,-0.7L0.134,-0.7L0.134,-0.413L0.452,-0.413L0.452,-0.7L0.508,-0.7L0.508,-0L0.452,-0L0.452,-0.358Z" style="fill-rule:nonzero;"/>
        </g>
        <g transform="matrix(72,0,0,72,211,341.4)">
            <path d="M0.129,-0.634C0.118,-0.624 0.106,-0.616 0.093,-0.609C0.079,-0.602 0.067,-0.596 0.057,-0.594C0.046,-0.591 0.04,-0.589 0.037,-0.588L0.024,-0.641C0.024,-0.64 0.03,-0.641 0.043,-0.644C0.056,-0.647 0.07,-0.653 0.086,-0.662C0.101,-0.671 0.116,-0.683 0.129,-0.7L0.185,-0.7L0.185,-0L0.129,-0L0.129,-0.634Z" style="fill-rule:nonzero;"/>
        </g>
        <g transform="matrix(72,0,0,72,242.464,341.4)">
            <path d="M0.071,-0.113C0.085,-0.092 0.103,-0.075 0.127,-0.063C0.15,-0.05 0.174,-0.044 0.201,-0.044C0.23,-0.044 0.256,-0.051 0.28,-0.065C0.304,-0.079 0.323,-0.098 0.337,-0.122C0.351,-0.146 0.358,-0.172 0.358,-0.201C0.358,-0.23 0.351,-0.256 0.337,-0.28C0.323,-0.304 0.304,-0.323 0.28,-0.337C0.256,-0.351 0.23,-0.358 0.201,-0.358L0.057,-0.358L0.093,-0.7L0.358,-0.7L0.358,-0.645L0.142,-0.645L0.118,-0.413L0.201,-0.413C0.24,-0.413 0.275,-0.404 0.308,-0.385C0.341,-0.366 0.367,-0.34 0.386,-0.308C0.405,-0.275 0.414,-0.24 0.414,-0.201C0.414,-0.162 0.405,-0.127 0.386,-0.094C0.367,-0.061 0.341,-0.035 0.308,-0.017C0.275,0.003 0.24,0.012 0.201,0.012C0.165,0.012 0.131,0.004 0.1,-0.014C0.069,-0.031 0.043,-0.054 0.024,-0.083L0.071,-0.113Z" style="fill-rule:nonzero;"/>
        </g>
        <g transform="matrix(72,0,0,72,290.416,341.4)">
            <path d="M0.071,-0.113C0.085,-0.092 0.103,-0.075 0.127,-0.063C0.15,-0.05 0.174,-0.044 0.201,-0.044C0.23,-0.044 0.256,-0.051 0.28,-0.065C0.304,-0.079 0.323,-0.098 0.337,-0.122C0.351,-0.146 0.358,-0.172 0.358,-0.201C0.358,-0.229 0.351,-0.255 0.338,-0.278C0.325,-0.301 0.306,-0.32 0.283,-0.335C0.26,-0.349 0.234,-0.357 0.207,-0.358L0.097,-0.358L0.29,-0.645L0.071,-0.645L0.071,-0.7L0.358,-0.7L0.358,-0.651L0.199,-0.413L0.201,-0.413C0.24,-0.413 0.275,-0.404 0.308,-0.385C0.341,-0.366 0.367,-0.34 0.386,-0.308C0.405,-0.275 0.414,-0.24 0.414,-0.201C0.414,-0.162 0.405,-0.127 0.386,-0.094C0.367,-0.061 0.341,-0.035 0.308,-0.017C0.275,0.003 0.24,0.012 0.201,0.012C0.165,0.012 0.131,0.004 0.1,-0.014C0.069,-0.031 0.043,-0.054 0.024,-0.083L0.071,-0.113Z" style="fill-rule:nonzero;"/>
        </g>
        <g transform="matrix(72,0,0,72,338.368,341.4)">
            <path d="M0.377,-0.245L0.149,-0.245L0.071,-0L0.012,-0L0.236,-0.7L0.289,-0.7L0.517,-0L0.457,-0L0.377,-0.245ZM0.165,-0.3L0.362,-0.3L0.262,-0.613L0.165,-0.3Z" style="fill-rule:nonzero;"/>
        </g>
    </g>
    <g transform="matrix(1,0,0,1,-176,230)">
        <g transform="matrix(72,0,0,72,211,257.4)">
            <path d="M0.452,-0.358L0.134,-0.358L0.134,-0L0.078,-0L0.078,-0.7L0.134,-0.7L0.134,-0.413L0.452,-0.413L0.452,-0.7L0.508,-0.7L0.508,-0L0.452,-0L0.452,-0.358Z" style="fill-rule:nonzero;"/>
        </g>
        <g transform="matrix(72,0,0,72,256.072,257.4)">
            <path d="M0.377,-0.245L0.149,-0.245L0.071,-0L0.012,-0L0.236,-0.7L0.289,-0.7L0.517,-0L0.457,-0L0.377,-0.245ZM0.165,-0.3L0.362,-0.3L0.262,-0.613L0.165,-0.3Z" style="fill-rule:nonzero;"/>
        </g>
        <g transform="matrix(72,0,0,72,296.752,257.4)">
            <path d="M0.094,-0.178C0.096,-0.155 0.105,-0.134 0.12,-0.113C0.135,-0.092 0.155,-0.076 0.182,-0.063C0.208,-0.05 0.238,-0.043 0.272,-0.043C0.323,-0.043 0.366,-0.055 0.401,-0.078C0.435,-0.1 0.452,-0.137 0.452,-0.187C0.452,-0.216 0.444,-0.241 0.427,-0.261C0.41,-0.28 0.39,-0.296 0.365,-0.308C0.34,-0.319 0.307,-0.333 0.264,-0.348C0.218,-0.364 0.181,-0.379 0.154,-0.393C0.126,-0.406 0.102,-0.425 0.084,-0.448C0.065,-0.471 0.055,-0.501 0.055,-0.538C0.055,-0.567 0.063,-0.595 0.08,-0.622C0.097,-0.648 0.122,-0.669 0.156,-0.686C0.189,-0.702 0.231,-0.71 0.28,-0.71C0.313,-0.71 0.34,-0.708 0.361,-0.703C0.382,-0.698 0.404,-0.691 0.426,-0.68L0.409,-0.627C0.371,-0.646 0.329,-0.656 0.282,-0.656C0.231,-0.656 0.19,-0.645 0.159,-0.624C0.128,-0.603 0.113,-0.573 0.113,-0.535C0.113,-0.511 0.121,-0.491 0.136,-0.475C0.151,-0.458 0.17,-0.445 0.193,-0.435C0.215,-0.425 0.246,-0.413 0.286,-0.399C0.335,-0.382 0.374,-0.367 0.404,-0.353C0.434,-0.338 0.46,-0.318 0.481,-0.292C0.501,-0.265 0.512,-0.232 0.512,-0.192C0.512,-0.131 0.493,-0.082 0.454,-0.045C0.415,-0.008 0.354,0.011 0.273,0.011C0.224,0.011 0.182,0.002 0.147,-0.017C0.112,-0.035 0.085,-0.058 0.067,-0.088C0.048,-0.117 0.038,-0.147 0.037,-0.178L0.094,-0.178Z" style="fill-rule:nonzero;"/>
        </g>
        <g transform="matrix(72,0,0,72,339.88,257.4)">
            <path d="M0.452,-0.358L0.134,-0.358L0.134,-0L0.078,-0L0.078,-0.7L0.134,-0.7L0.134,-0.413L0.452,-0.413L0.452,-0.7L0.508,-0.7L0.508,-0L0.452,-0L0.452,-0.358Z" style="fill-rule:nonzero;"/>
        </g>
        <g transform="matrix(72,0,0,72,211,341.4)">
            <path d="M0.024,-0.053L0.278,-0.438C0.302,-0.477 0.314,-0.512 0.314,-0.544C0.314,-0.578 0.303,-0.605 0.28,-0.626C0.257,-0.647 0.231,-0.657 0.201,-0.657C0.176,-0.657 0.153,-0.649 0.133,-0.633C0.113,-0.617 0.098,-0.596 0.089,-0.57L0.037,-0.59C0.05,-0.625 0.07,-0.654 0.098,-0.677C0.125,-0.699 0.16,-0.71 0.201,-0.71C0.234,-0.71 0.263,-0.703 0.29,-0.689C0.316,-0.675 0.336,-0.656 0.351,-0.631C0.366,-0.606 0.373,-0.579 0.373,-0.548C0.373,-0.505 0.358,-0.46 0.329,-0.413L0.089,-0.052L0.375,-0.052L0.375,-0L0.024,-0L0.024,-0.053Z" style="fill-rule:nonzero;"/>
        </g>
        <g transform="matrix(72,0,0,72,252.832,341.4)">
            <path d="M0.078,-0.7L0.299,-0.7C0.354,-0.7 0.397,-0.686 0.428,-0.658C0.459,-0.63 0.475,-0.587 0.475,-0.53C0.475,-0.504 0.471,-0.479 0.462,-0.456C0.453,-0.433 0.436,-0.412 0.409,-0.394L0.408,-0.392L0.408,-0.391C0.437,-0.378 0.462,-0.356 0.482,-0.326C0.501,-0.296 0.511,-0.257 0.511,-0.209C0.511,-0.152 0.496,-0.102 0.465,-0.062C0.434,-0.021 0.381,-0 0.308,-0L0.078,-0L0.078,-0.7ZM0.297,-0.413C0.334,-0.413 0.364,-0.423 0.385,-0.443C0.406,-0.463 0.417,-0.492 0.417,-0.53C0.417,-0.608 0.375,-0.647 0.291,-0.647L0.134,-0.647L0.134,-0.413L0.297,-0.413ZM0.306,-0.053C0.351,-0.053 0.386,-0.065 0.412,-0.089C0.438,-0.113 0.451,-0.154 0.451,-0.213C0.451,-0.26 0.438,-0.296 0.413,-0.321C0.388,-0.345 0.358,-0.358 0.323,-0.358L0.134,-0.358L0.134,-0.053L0.306,-0.053Z" style="fill-rule:nonzero;"/>
        </g>
        <g transform="matrix(72,0,0,72,305.104,341.4)">
            <path d="M0.427,-0.023C0.368,-0.001 0.312,0.01 0.261,0.01C0.203,0.01 0.156,-0.005 0.12,-0.036C0.084,-0.067 0.066,-0.116 0.066,-0.183L0.066,-0.504C0.066,-0.555 0.073,-0.593 0.088,-0.619C0.102,-0.645 0.124,-0.667 0.153,-0.685C0.182,-0.702 0.218,-0.71 0.261,-0.71C0.313,-0.71 0.36,-0.699 0.402,-0.677L0.386,-0.639C0.348,-0.653 0.312,-0.66 0.278,-0.66C0.237,-0.66 0.201,-0.65 0.17,-0.63C0.138,-0.61 0.122,-0.571 0.122,-0.513L0.122,-0.185C0.122,-0.139 0.134,-0.103 0.158,-0.079C0.182,-0.054 0.218,-0.041 0.266,-0.041C0.308,-0.041 0.358,-0.051 0.415,-0.07L0.427,-0.023Z" style="fill-rule:nonzero;"/>
        </g>
        <g transform="matrix(72,0,0,72,349.6,341.4)">
            <path d="M0.17,-0.055L0.209,-0.055C0.24,-0.055 0.27,-0.062 0.299,-0.076C0.327,-0.089 0.35,-0.11 0.368,-0.139C0.385,-0.168 0.394,-0.203 0.394,-0.246L0.394,-0.353C0.374,-0.332 0.35,-0.315 0.324,-0.303C0.297,-0.291 0.268,-0.285 0.237,-0.285C0.198,-0.285 0.163,-0.295 0.13,-0.314C0.097,-0.333 0.071,-0.358 0.053,-0.391C0.034,-0.423 0.024,-0.458 0.024,-0.497C0.024,-0.536 0.034,-0.571 0.053,-0.604C0.071,-0.637 0.097,-0.663 0.13,-0.682C0.163,-0.7 0.198,-0.71 0.237,-0.71C0.276,-0.71 0.311,-0.7 0.344,-0.682C0.376,-0.663 0.401,-0.637 0.421,-0.604C0.44,-0.571 0.449,-0.536 0.449,-0.497L0.449,-0.239C0.449,-0.202 0.441,-0.166 0.426,-0.13C0.41,-0.093 0.384,-0.063 0.348,-0.038C0.311,-0.012 0.264,-0 0.205,-0L0.17,-0L0.17,-0.055ZM0.237,-0.34C0.266,-0.34 0.292,-0.347 0.316,-0.361C0.34,-0.374 0.359,-0.393 0.373,-0.418C0.387,-0.443 0.394,-0.471 0.394,-0.503C0.394,-0.531 0.387,-0.557 0.373,-0.58C0.359,-0.603 0.34,-0.621 0.316,-0.635C0.291,-0.648 0.265,-0.655 0.237,-0.655C0.208,-0.655 0.182,-0.648 0.158,-0.634C0.133,-0.62 0.114,-0.601 0.1,-0.577C0.086,-0.552 0.079,-0.526 0.079,-0.497C0.079,-0.468 0.086,-0.442 0.1,-0.418C0.114,-0.394 0.133,-0.375 0.158,-0.361C0.182,-0.347 0.208,-0.34 0.237,-0.34Z" style="fill-rule:nonzero;"/>
        </g>
    </g>
</svg>
